<svg width="400" height="300" viewBox="0 0 400 300" fill="none" xmlns="http://www.w3.org/2000/svg">
  <defs>
    <radialGradient id="soil" cx="50%" cy="80%" r="60%">
      <stop offset="0%" style="stop-color:#8B4513;stop-opacity:1" />
      <stop offset="100%" style="stop-color:#654321;stop-opacity:1" />
    </radialGradient>
    <radialGradient id="leaf" cx="30%" cy="30%" r="70%">
      <stop offset="0%" style="stop-color:#90EE90;stop-opacity:1" />
      <stop offset="100%" style="stop-color:#228B22;stop-opacity:1" />
    </radialGradient>
    <filter id="glow">
      <feGaussianBlur stdDeviation="2" result="coloredBlur"/>
      <feMerge> 
        <feMergeNode in="coloredBlur"/>
        <feMergeNode in="SourceGraphic"/>
      </feMerge>
    </filter>
  </defs>
  
  <!-- Suelo -->
  <ellipse cx="200" cy="280" rx="180" ry="40" fill="url(#soil)"/>
  
  <!-- Partículas de suelo -->
  <circle cx="120" cy="260" r="2" fill="#654321" opacity="0.6"/>
  <circle cx="180" cy="270" r="1.5" fill="#8B4513" opacity="0.7"/>
  <circle cx="250" cy="265" r="2.5" fill="#654321" opacity="0.5"/>
  
  <!-- Tallo principal -->
  <path d="M 200 280 Q 200 250 200 220 Q 200 200 200 180" 
        stroke="url(#leaf)" 
        stroke-width="3" 
        fill="none" 
        filter="url(#glow)"/>
  
  <!-- Hoja izquierda -->
  <ellipse cx="180" cy="200" rx="25" ry="15" 
           fill="url(#leaf)" 
           transform="rotate(-30 180 200)"
           filter="url(#glow)"/>
  
  <!-- Hoja derecha -->
  <ellipse cx="220" cy="190" rx="25" ry="15" 
           fill="url(#leaf)" 
           transform="rotate(30 220 190)"
           filter="url(#glow)"/>
  
  <!-- Brotes adicionales -->
  <path d="M 190 240 Q 185 230 180 220" 
        stroke="url(#leaf)" 
        stroke-width="2" 
        fill="none" 
        opacity="0.7"/>
  
  <path d="M 210 240 Q 215 230 220 220" 
        stroke="url(#leaf)" 
        stroke-width="2" 
        fill="none" 
        opacity="0.7"/>
  
  <!-- Pequeñas hojas -->
  <ellipse cx="175" cy="225" rx="8" ry="5" 
           fill="url(#leaf)" 
           transform="rotate(-20 175 225)"
           opacity="0.8"/>
  
  <ellipse cx="225" cy="225" rx="8" ry="5" 
           fill="url(#leaf)" 
           transform="rotate(20 225 225)"
           opacity="0.8"/>
</svg>